# xmcd
#
# Track frame offsets:
#	150
#	25188
#	53613
#	67588
#
# Disc length: 1092
#
# Revision: 1
# Processed by: cddbd v1.5.1PL0 Copyright (c) Steve Scherf et al.
# Submitted via: CD-DA_X-Tractor v0.23
# Normalized: r0:TDELIM( - )
#
DISCID=23044204
DTITLE=Johnny Adams/Walter "Wolfman Washington/Bobby King and Terry Evans/Lowell Fulson - Blues With A Difference
DYEAR=1987
DGENRE=
TTITLE0=Johnny Adams - "Body and Fender Man"
TTITLE1=Walter "Wolfman" Washington - "You Can Stay but the Noise Must Go"
TTITLE2=Bobby King and Terry Evans - "Bald Head"
TTITLE3=Lowell Fulson - "Slow Down Baby"
EXTD=
EXTT0=
EXTT1=
EXTT2=
EXTT3=
PLAYORDER=
